<mxfile host="Electron" modified="2023-04-25T17:47:02.484Z" agent="Mozilla/5.0 (X11; Linux x86_64) AppleWebKit/537.36 (KHTML, like Gecko) draw.io/21.2.1 Chrome/112.0.5615.87 Electron/24.1.2 Safari/537.36" etag="hZfUNEMtGI-gc9ITnJa9" version="21.2.1" type="device">
  <diagram name="Page-1" id="b6hC0KqA0mtwIxL-JWRb">
    <mxGraphModel dx="1746" dy="1316" grid="1" gridSize="10" guides="1" tooltips="1" connect="1" arrows="1" fold="1" page="0" pageScale="1" pageWidth="827" pageHeight="1169" math="0" shadow="0">
      <root>
        <mxCell id="0" />
        <mxCell id="1" parent="0" />
        <mxCell id="8CmF55PLn8-WNRpsDt82-1" value="CEKF" style="rounded=0;whiteSpace=wrap;html=1;" vertex="1" parent="1">
          <mxGeometry y="110" width="120" height="30" as="geometry" />
        </mxCell>
        <mxCell id="8CmF55PLn8-WNRpsDt82-7" style="edgeStyle=orthogonalEdgeStyle;rounded=0;orthogonalLoop=1;jettySize=auto;html=1;curved=1;strokeWidth=2;" edge="1" parent="1" source="8CmF55PLn8-WNRpsDt82-2">
          <mxGeometry relative="1" as="geometry">
            <mxPoint x="220" y="80" as="targetPoint" />
            <Array as="points">
              <mxPoint x="170" y="155" />
              <mxPoint x="170" y="80" />
            </Array>
          </mxGeometry>
        </mxCell>
        <mxCell id="8CmF55PLn8-WNRpsDt82-2" value="C" style="rounded=0;whiteSpace=wrap;html=1;" vertex="1" parent="1">
          <mxGeometry y="140" width="120" height="30" as="geometry" />
        </mxCell>
        <mxCell id="8CmF55PLn8-WNRpsDt82-63" style="edgeStyle=entityRelationEdgeStyle;rounded=0;orthogonalLoop=1;jettySize=auto;html=1;entryX=0;entryY=0.25;entryDx=0;entryDy=0;strokeWidth=2;strokeColor=#FF0000;" edge="1" parent="1" source="8CmF55PLn8-WNRpsDt82-3" target="8CmF55PLn8-WNRpsDt82-8">
          <mxGeometry relative="1" as="geometry" />
        </mxCell>
        <mxCell id="8CmF55PLn8-WNRpsDt82-3" value="E" style="rounded=0;whiteSpace=wrap;html=1;fillColor=#f8cecc;strokeColor=#b85450;" vertex="1" parent="1">
          <mxGeometry y="170" width="120" height="30" as="geometry" />
        </mxCell>
        <mxCell id="8CmF55PLn8-WNRpsDt82-22" style="edgeStyle=orthogonalEdgeStyle;rounded=0;orthogonalLoop=1;jettySize=auto;html=1;entryX=0;entryY=0.25;entryDx=0;entryDy=0;strokeColor=#0000FF;strokeWidth=2;jumpStyle=arc;curved=1;" edge="1" parent="1" source="8CmF55PLn8-WNRpsDt82-4" target="8CmF55PLn8-WNRpsDt82-17">
          <mxGeometry relative="1" as="geometry">
            <mxPoint x="320" y="375" as="targetPoint" />
          </mxGeometry>
        </mxCell>
        <mxCell id="8CmF55PLn8-WNRpsDt82-4" value="K" style="rounded=0;whiteSpace=wrap;html=1;fillColor=#dae8fc;strokeColor=#6c8ebf;" vertex="1" parent="1">
          <mxGeometry y="200" width="120" height="30" as="geometry" />
        </mxCell>
        <mxCell id="8CmF55PLn8-WNRpsDt82-60" style="edgeStyle=orthogonalEdgeStyle;rounded=0;orthogonalLoop=1;jettySize=auto;html=1;strokeColor=#7F00FF;strokeWidth=2;curved=1;entryX=0;entryY=0.25;entryDx=0;entryDy=0;" edge="1" parent="1" source="8CmF55PLn8-WNRpsDt82-5" target="8CmF55PLn8-WNRpsDt82-49">
          <mxGeometry relative="1" as="geometry">
            <mxPoint x="-20" y="490" as="targetPoint" />
            <Array as="points">
              <mxPoint x="-90" y="255" />
              <mxPoint x="-90" y="498" />
            </Array>
          </mxGeometry>
        </mxCell>
        <mxCell id="8CmF55PLn8-WNRpsDt82-5" value="F" style="rounded=0;whiteSpace=wrap;html=1;fillColor=#e1d5e7;strokeColor=#9673a6;" vertex="1" parent="1">
          <mxGeometry y="230" width="120" height="30" as="geometry" />
        </mxCell>
        <mxCell id="8CmF55PLn8-WNRpsDt82-6" value="Exp" style="ellipse;whiteSpace=wrap;html=1;" vertex="1" parent="1">
          <mxGeometry x="210" y="50" width="80" height="40" as="geometry" />
        </mxCell>
        <mxCell id="8CmF55PLn8-WNRpsDt82-8" value="Env" style="rounded=0;whiteSpace=wrap;html=1;fillColor=#f8cecc;strokeColor=#b85450;" vertex="1" parent="1">
          <mxGeometry x="320" y="180" width="120" height="30" as="geometry" />
        </mxCell>
        <mxCell id="8CmF55PLn8-WNRpsDt82-59" style="edgeStyle=orthogonalEdgeStyle;rounded=0;orthogonalLoop=1;jettySize=auto;html=1;entryX=0;entryY=0.25;entryDx=0;entryDy=0;strokeColor=#009900;strokeWidth=2;jumpStyle=arc;curved=1;" edge="1" parent="1" source="8CmF55PLn8-WNRpsDt82-10" target="8CmF55PLn8-WNRpsDt82-28">
          <mxGeometry relative="1" as="geometry">
            <Array as="points">
              <mxPoint x="260" y="255" />
              <mxPoint x="260" y="548" />
            </Array>
          </mxGeometry>
        </mxCell>
        <mxCell id="8CmF55PLn8-WNRpsDt82-62" style="edgeStyle=orthogonalEdgeStyle;rounded=0;orthogonalLoop=1;jettySize=auto;html=1;entryX=0.5;entryY=1;entryDx=0;entryDy=0;curved=1;strokeWidth=2;" edge="1" parent="1" source="8CmF55PLn8-WNRpsDt82-9" target="8CmF55PLn8-WNRpsDt82-6">
          <mxGeometry relative="1" as="geometry">
            <Array as="points">
              <mxPoint x="250" y="225" />
            </Array>
          </mxGeometry>
        </mxCell>
        <mxCell id="8CmF55PLn8-WNRpsDt82-9" value="Var" style="rounded=0;whiteSpace=wrap;html=1;" vertex="1" parent="1">
          <mxGeometry x="320" y="210" width="120" height="30" as="geometry" />
        </mxCell>
        <mxCell id="8CmF55PLn8-WNRpsDt82-10" value="Val" style="rounded=0;whiteSpace=wrap;html=1;fillColor=#d5e8d4;strokeColor=#82b366;" vertex="1" parent="1">
          <mxGeometry x="320" y="240" width="120" height="30" as="geometry" />
        </mxCell>
        <mxCell id="8CmF55PLn8-WNRpsDt82-12" style="edgeStyle=orthogonalEdgeStyle;rounded=0;orthogonalLoop=1;jettySize=auto;html=1;entryX=1;entryY=0.75;entryDx=0;entryDy=0;jumpStyle=arc;strokeColor=#FF0000;strokeWidth=2;curved=1;" edge="1" parent="1" source="8CmF55PLn8-WNRpsDt82-11" target="8CmF55PLn8-WNRpsDt82-8">
          <mxGeometry relative="1" as="geometry">
            <Array as="points">
              <mxPoint x="480" y="285" />
              <mxPoint x="480" y="203" />
            </Array>
          </mxGeometry>
        </mxCell>
        <mxCell id="8CmF55PLn8-WNRpsDt82-11" value="Next" style="rounded=0;whiteSpace=wrap;html=1;fillColor=#f8cecc;strokeColor=#b85450;" vertex="1" parent="1">
          <mxGeometry x="320" y="270" width="120" height="30" as="geometry" />
        </mxCell>
        <mxCell id="8CmF55PLn8-WNRpsDt82-17" value="Kont" style="rounded=0;whiteSpace=wrap;html=1;" vertex="1" parent="1">
          <mxGeometry x="320" y="340" width="120" height="30" as="geometry" />
        </mxCell>
        <mxCell id="8CmF55PLn8-WNRpsDt82-61" style="edgeStyle=orthogonalEdgeStyle;rounded=0;orthogonalLoop=1;jettySize=auto;html=1;curved=1;strokeWidth=2;exitX=1;exitY=0.5;exitDx=0;exitDy=0;entryX=1;entryY=1;entryDx=0;entryDy=0;" edge="1" parent="1" source="8CmF55PLn8-WNRpsDt82-19" target="8CmF55PLn8-WNRpsDt82-6">
          <mxGeometry relative="1" as="geometry">
            <mxPoint x="340" y="140" as="targetPoint" />
            <Array as="points">
              <mxPoint x="560" y="385" />
              <mxPoint x="560" y="84" />
            </Array>
          </mxGeometry>
        </mxCell>
        <mxCell id="8CmF55PLn8-WNRpsDt82-19" value="Var" style="rounded=0;whiteSpace=wrap;html=1;" vertex="1" parent="1">
          <mxGeometry x="320" y="370" width="120" height="30" as="geometry" />
        </mxCell>
        <mxCell id="8CmF55PLn8-WNRpsDt82-21" style="edgeStyle=orthogonalEdgeStyle;rounded=0;orthogonalLoop=1;jettySize=auto;html=1;entryX=1;entryY=0;entryDx=0;entryDy=0;curved=1;strokeWidth=2;" edge="1" parent="1" source="8CmF55PLn8-WNRpsDt82-20" target="8CmF55PLn8-WNRpsDt82-6">
          <mxGeometry relative="1" as="geometry">
            <Array as="points">
              <mxPoint x="600" y="415" />
              <mxPoint x="600" y="56" />
            </Array>
          </mxGeometry>
        </mxCell>
        <mxCell id="8CmF55PLn8-WNRpsDt82-20" value="Body" style="rounded=0;whiteSpace=wrap;html=1;" vertex="1" parent="1">
          <mxGeometry x="320" y="400" width="120" height="30" as="geometry" />
        </mxCell>
        <mxCell id="8CmF55PLn8-WNRpsDt82-45" style="edgeStyle=orthogonalEdgeStyle;rounded=0;orthogonalLoop=1;jettySize=auto;html=1;entryX=0;entryY=0.75;entryDx=0;entryDy=0;strokeColor=#009900;strokeWidth=2;curved=1;" edge="1" parent="1" source="8CmF55PLn8-WNRpsDt82-23" target="8CmF55PLn8-WNRpsDt82-28">
          <mxGeometry relative="1" as="geometry">
            <Array as="points">
              <mxPoint x="200" y="275" />
              <mxPoint x="200" y="563" />
            </Array>
          </mxGeometry>
        </mxCell>
        <mxCell id="8CmF55PLn8-WNRpsDt82-23" value="V" style="rounded=0;whiteSpace=wrap;html=1;fillColor=#d5e8d4;strokeColor=#82b366;" vertex="1" parent="1">
          <mxGeometry y="260" width="120" height="30" as="geometry" />
        </mxCell>
        <mxCell id="8CmF55PLn8-WNRpsDt82-27" style="edgeStyle=orthogonalEdgeStyle;rounded=0;orthogonalLoop=1;jettySize=auto;html=1;jumpStyle=arc;strokeColor=#FF0000;strokeWidth=2;curved=1;" edge="1" parent="1" source="8CmF55PLn8-WNRpsDt82-24">
          <mxGeometry relative="1" as="geometry">
            <mxPoint x="440" y="190" as="targetPoint" />
            <Array as="points">
              <mxPoint x="630" y="445" />
              <mxPoint x="630" y="190" />
            </Array>
          </mxGeometry>
        </mxCell>
        <mxCell id="8CmF55PLn8-WNRpsDt82-24" value="Env" style="rounded=0;whiteSpace=wrap;html=1;fillColor=#f8cecc;strokeColor=#b85450;" vertex="1" parent="1">
          <mxGeometry x="320" y="430" width="120" height="30" as="geometry" />
        </mxCell>
        <mxCell id="8CmF55PLn8-WNRpsDt82-26" style="edgeStyle=orthogonalEdgeStyle;rounded=0;orthogonalLoop=1;jettySize=auto;html=1;entryX=1;entryY=0.25;entryDx=0;entryDy=0;jumpStyle=arc;strokeColor=#0000FF;strokeWidth=2;curved=1;" edge="1" parent="1" source="8CmF55PLn8-WNRpsDt82-25" target="8CmF55PLn8-WNRpsDt82-17">
          <mxGeometry relative="1" as="geometry">
            <mxPoint x="200" y="295" as="targetPoint" />
            <Array as="points">
              <mxPoint x="590" y="475" />
              <mxPoint x="590" y="348" />
            </Array>
          </mxGeometry>
        </mxCell>
        <mxCell id="8CmF55PLn8-WNRpsDt82-25" value="next" style="rounded=0;whiteSpace=wrap;html=1;fillColor=#dae8fc;strokeColor=#6c8ebf;" vertex="1" parent="1">
          <mxGeometry x="320" y="460" width="120" height="30" as="geometry" />
        </mxCell>
        <mxCell id="8CmF55PLn8-WNRpsDt82-28" value="Value" style="rounded=0;whiteSpace=wrap;html=1;fillColor=#d5e8d4;strokeColor=#82b366;" vertex="1" parent="1">
          <mxGeometry x="320" y="540" width="120" height="30" as="geometry" />
        </mxCell>
        <mxCell id="8CmF55PLn8-WNRpsDt82-29" value="Type" style="rounded=0;whiteSpace=wrap;html=1;fillColor=#fff2cc;strokeColor=#d6b656;" vertex="1" parent="1">
          <mxGeometry x="320" y="570" width="120" height="30" as="geometry" />
        </mxCell>
        <mxCell id="8CmF55PLn8-WNRpsDt82-33" style="edgeStyle=orthogonalEdgeStyle;rounded=0;orthogonalLoop=1;jettySize=auto;html=1;entryX=1;entryY=0.5;entryDx=0;entryDy=0;curved=1;strokeWidth=2;" edge="1" parent="1" source="8CmF55PLn8-WNRpsDt82-30" target="8CmF55PLn8-WNRpsDt82-31">
          <mxGeometry relative="1" as="geometry">
            <Array as="points">
              <mxPoint x="180" y="615" />
              <mxPoint x="180" y="365" />
            </Array>
          </mxGeometry>
        </mxCell>
        <mxCell id="8CmF55PLn8-WNRpsDt82-34" style="edgeStyle=orthogonalEdgeStyle;rounded=0;orthogonalLoop=1;jettySize=auto;html=1;curved=1;strokeColor=#0000FF;strokeWidth=2;entryX=1;entryY=0.75;entryDx=0;entryDy=0;" edge="1" parent="1" source="8CmF55PLn8-WNRpsDt82-30" target="8CmF55PLn8-WNRpsDt82-17">
          <mxGeometry relative="1" as="geometry">
            <mxPoint x="570" y="390" as="targetPoint" />
            <Array as="points">
              <mxPoint x="560" y="615" />
              <mxPoint x="560" y="363" />
            </Array>
          </mxGeometry>
        </mxCell>
        <mxCell id="8CmF55PLn8-WNRpsDt82-30" value="Val" style="rounded=0;whiteSpace=wrap;html=1;fillColor=#fff2cc;strokeColor=#d6b656;" vertex="1" parent="1">
          <mxGeometry x="320" y="600" width="120" height="30" as="geometry" />
        </mxCell>
        <mxCell id="8CmF55PLn8-WNRpsDt82-31" value="Clo" style="rounded=0;whiteSpace=wrap;html=1;" vertex="1" parent="1">
          <mxGeometry y="350" width="120" height="30" as="geometry" />
        </mxCell>
        <mxCell id="8CmF55PLn8-WNRpsDt82-35" value="ValueList" style="rounded=0;whiteSpace=wrap;html=1;" vertex="1" parent="1">
          <mxGeometry x="320" y="680" width="120" height="30" as="geometry" />
        </mxCell>
        <mxCell id="8CmF55PLn8-WNRpsDt82-40" style="edgeStyle=orthogonalEdgeStyle;rounded=0;orthogonalLoop=1;jettySize=auto;html=1;strokeColor=#009900;strokeWidth=2;curved=1;" edge="1" parent="1" source="8CmF55PLn8-WNRpsDt82-36">
          <mxGeometry relative="1" as="geometry">
            <mxPoint x="440" y="550" as="targetPoint" />
            <Array as="points">
              <mxPoint x="520" y="725" />
              <mxPoint x="520" y="550" />
            </Array>
          </mxGeometry>
        </mxCell>
        <mxCell id="8CmF55PLn8-WNRpsDt82-36" value="Value" style="rounded=0;whiteSpace=wrap;html=1;fillColor=#d5e8d4;strokeColor=#82b366;" vertex="1" parent="1">
          <mxGeometry x="320" y="710" width="120" height="30" as="geometry" />
        </mxCell>
        <mxCell id="8CmF55PLn8-WNRpsDt82-39" style="edgeStyle=orthogonalEdgeStyle;rounded=0;orthogonalLoop=1;jettySize=auto;html=1;entryX=0;entryY=0.5;entryDx=0;entryDy=0;strokeWidth=2;jumpStyle=arc;curved=1;" edge="1" parent="1" source="8CmF55PLn8-WNRpsDt82-37" target="8CmF55PLn8-WNRpsDt82-35">
          <mxGeometry relative="1" as="geometry">
            <Array as="points">
              <mxPoint x="290" y="755" />
              <mxPoint x="290" y="695" />
            </Array>
          </mxGeometry>
        </mxCell>
        <mxCell id="8CmF55PLn8-WNRpsDt82-37" value="Next" style="rounded=0;whiteSpace=wrap;html=1;" vertex="1" parent="1">
          <mxGeometry x="320" y="740" width="120" height="30" as="geometry" />
        </mxCell>
        <mxCell id="8CmF55PLn8-WNRpsDt82-42" style="edgeStyle=orthogonalEdgeStyle;rounded=0;orthogonalLoop=1;jettySize=auto;html=1;curved=1;strokeWidth=2;entryX=0;entryY=0;entryDx=0;entryDy=0;" edge="1" parent="1" source="8CmF55PLn8-WNRpsDt82-41" target="8CmF55PLn8-WNRpsDt82-6">
          <mxGeometry relative="1" as="geometry">
            <mxPoint x="180" y="70" as="targetPoint" />
            <Array as="points">
              <mxPoint x="-90" y="395" />
              <mxPoint x="-90" y="56" />
            </Array>
          </mxGeometry>
        </mxCell>
        <mxCell id="8CmF55PLn8-WNRpsDt82-41" value="Lam" style="rounded=0;whiteSpace=wrap;html=1;" vertex="1" parent="1">
          <mxGeometry y="380" width="120" height="30" as="geometry" />
        </mxCell>
        <mxCell id="8CmF55PLn8-WNRpsDt82-44" style="edgeStyle=orthogonalEdgeStyle;rounded=0;orthogonalLoop=1;jettySize=auto;html=1;entryX=0;entryY=0.5;entryDx=0;entryDy=0;jumpStyle=arc;strokeColor=#FF0000;strokeWidth=2;curved=1;" edge="1" parent="1" source="8CmF55PLn8-WNRpsDt82-43" target="8CmF55PLn8-WNRpsDt82-8">
          <mxGeometry relative="1" as="geometry">
            <Array as="points">
              <mxPoint x="180" y="420" />
              <mxPoint x="180" y="195" />
            </Array>
          </mxGeometry>
        </mxCell>
        <mxCell id="8CmF55PLn8-WNRpsDt82-43" value="Env" style="rounded=0;whiteSpace=wrap;html=1;fillColor=#f8cecc;strokeColor=#b85450;" vertex="1" parent="1">
          <mxGeometry y="410" width="120" height="30" as="geometry" />
        </mxCell>
        <mxCell id="8CmF55PLn8-WNRpsDt82-49" value="Fail" style="rounded=0;whiteSpace=wrap;html=1;fillColor=#e1d5e7;strokeColor=#9673a6;" vertex="1" parent="1">
          <mxGeometry y="490" width="120" height="30" as="geometry" />
        </mxCell>
        <mxCell id="8CmF55PLn8-WNRpsDt82-52" style="edgeStyle=orthogonalEdgeStyle;rounded=0;orthogonalLoop=1;jettySize=auto;html=1;curved=1;entryX=0.5;entryY=0;entryDx=0;entryDy=0;strokeWidth=2;" edge="1" parent="1" source="8CmF55PLn8-WNRpsDt82-51" target="8CmF55PLn8-WNRpsDt82-6">
          <mxGeometry relative="1" as="geometry">
            <mxPoint x="240" y="100" as="targetPoint" />
            <Array as="points">
              <mxPoint x="-160" y="530" />
              <mxPoint x="-160" y="-20" />
              <mxPoint x="250" y="-20" />
            </Array>
          </mxGeometry>
        </mxCell>
        <mxCell id="8CmF55PLn8-WNRpsDt82-51" value="Exp" style="rounded=0;whiteSpace=wrap;html=1;" vertex="1" parent="1">
          <mxGeometry y="520" width="120" height="30" as="geometry" />
        </mxCell>
        <mxCell id="8CmF55PLn8-WNRpsDt82-54" style="edgeStyle=orthogonalEdgeStyle;rounded=0;orthogonalLoop=1;jettySize=auto;html=1;jumpStyle=arc;strokeColor=#FF0000;strokeWidth=2;entryX=0;entryY=0.75;entryDx=0;entryDy=0;curved=1;" edge="1" parent="1" source="8CmF55PLn8-WNRpsDt82-53" target="8CmF55PLn8-WNRpsDt82-8">
          <mxGeometry relative="1" as="geometry">
            <mxPoint x="260" y="160" as="targetPoint" />
            <Array as="points">
              <mxPoint x="220" y="565" />
              <mxPoint x="220" y="203" />
            </Array>
          </mxGeometry>
        </mxCell>
        <mxCell id="8CmF55PLn8-WNRpsDt82-53" value="Env" style="rounded=0;whiteSpace=wrap;html=1;fillColor=#f8cecc;strokeColor=#b85450;" vertex="1" parent="1">
          <mxGeometry y="550" width="120" height="30" as="geometry" />
        </mxCell>
        <mxCell id="8CmF55PLn8-WNRpsDt82-58" style="edgeStyle=orthogonalEdgeStyle;rounded=0;orthogonalLoop=1;jettySize=auto;html=1;jumpStyle=arc;strokeColor=#0000FF;strokeWidth=2;entryX=0;entryY=0.75;entryDx=0;entryDy=0;curved=1;" edge="1" parent="1" source="8CmF55PLn8-WNRpsDt82-55" target="8CmF55PLn8-WNRpsDt82-17">
          <mxGeometry relative="1" as="geometry">
            <mxPoint x="320" y="330" as="targetPoint" />
            <Array as="points">
              <mxPoint x="240" y="595" />
              <mxPoint x="240" y="363" />
            </Array>
          </mxGeometry>
        </mxCell>
        <mxCell id="8CmF55PLn8-WNRpsDt82-55" value="Kont" style="rounded=0;whiteSpace=wrap;html=1;fillColor=#dae8fc;strokeColor=#6c8ebf;" vertex="1" parent="1">
          <mxGeometry y="580" width="120" height="30" as="geometry" />
        </mxCell>
        <mxCell id="8CmF55PLn8-WNRpsDt82-57" style="edgeStyle=orthogonalEdgeStyle;rounded=0;orthogonalLoop=1;jettySize=auto;html=1;entryX=0;entryY=0.75;entryDx=0;entryDy=0;jumpStyle=arc;strokeColor=#7F00FF;strokeWidth=2;curved=1;" edge="1" parent="1" source="8CmF55PLn8-WNRpsDt82-56" target="8CmF55PLn8-WNRpsDt82-49">
          <mxGeometry relative="1" as="geometry">
            <mxPoint x="-100" y="565" as="targetPoint" />
            <Array as="points">
              <mxPoint x="-50" y="620" />
              <mxPoint x="-50" y="513" />
            </Array>
          </mxGeometry>
        </mxCell>
        <mxCell id="8CmF55PLn8-WNRpsDt82-56" value="next" style="rounded=0;whiteSpace=wrap;html=1;fillColor=#e1d5e7;strokeColor=#9673a6;" vertex="1" parent="1">
          <mxGeometry y="610" width="120" height="30" as="geometry" />
        </mxCell>
      </root>
    </mxGraphModel>
  </diagram>
</mxfile>
